<?xml version="1.0" standalone="no"?>
<!DOCTYPE svg PUBLIC "-//W3C//DTD SVG 20010904//EN"
 "http://www.w3.org/TR/2001/REC-SVG-20010904/DTD/svg10.dtd">
<svg version="1.0" xmlns="http://www.w3.org/2000/svg"
 width="5000.000000pt" height="3324.000000pt" viewBox="0 0 5000.000000 3324.000000"
 preserveAspectRatio="xMidYMid meet">

<g transform="translate(0.000000,3324.000000) scale(0.100000,-0.100000)"
fill="#000000" stroke="none">
<path d="M29110 32693 c-470 -284 -2097 -1263 -3615 -2175 -1518 -913 -2763
-1662 -2767 -1666 -4 -4 986 -1661 2200 -3682 1214 -2022 3541 -5900 5172
-8618 l2965 -4942 4947 0 c2722 0 4948 2 4948 5 0 8 -6854 11424 -9958 16585
-1656 2753 -3016 5006 -3024 5007 -7 1 -398 -231 -868 -514z"/>
<path d="M17615 23350 c-1991 -1199 -3626 -2183 -3634 -2188 -12 -6 607 -1043
2851 -4778 l2867 -4769 4945 -3 c2720 -1 4946 0 4946 3 0 17 -8314 13869
-8344 13902 -8 9 -891 -518 -3631 -2167z"/>
<path d="M8855 15650 c-1997 -1199 -3629 -2186 -3627 -2192 2 -6 251 -425 554
-930 l551 -918 4949 0 c2722 0 4947 3 4945 8 -148 260 -3724 6206 -3735 6210
-4 1 -1641 -979 -3637 -2178z"/>
<path d="M48140 12579 c-176 -21 -401 -96 -539 -178 -157 -93 -264 -187 -364
-320 -114 -151 -186 -301 -233 -486 -35 -134 -44 -393 -20 -532 46 -264 177
-523 356 -704 176 -178 442 -316 699 -364 109 -20 341 -20 457 0 180 32 420
136 570 249 197 147 367 395 447 652 160 510 -27 1104 -448 1422 -83 62 -298
171 -408 206 -165 53 -364 75 -517 55z m382 -242 c204 -53 364 -143 504 -282
231 -230 334 -495 322 -828 -6 -151 -28 -251 -86 -386 -184 -426 -619 -682
-1091 -641 -181 16 -314 60 -478 159 -239 144 -397 358 -480 651 -31 107 -42
312 -23 427 56 351 276 654 588 812 84 42 251 98 332 110 109 17 301 6 412
-22z"/>
<path d="M47695 11958 c-3 -7 -4 -326 -3 -708 l3 -695 110 0 110 0 3 298 2
297 76 0 c97 0 231 -39 278 -81 46 -40 118 -147 221 -329 49 -85 95 -163 103
-172 13 -15 33 -18 137 -18 67 0 124 3 128 6 10 11 -161 282 -269 425 -79 105
-119 149 -156 172 l-50 31 60 12 c126 26 247 119 300 231 23 50 27 71 27 153
0 84 -3 101 -28 150 -54 106 -141 173 -264 205 -122 32 -778 50 -788 23z m669
-203 c123 -26 171 -86 164 -206 -3 -57 -8 -74 -34 -106 -61 -76 -131 -93 -390
-93 l-184 0 0 210 0 210 188 0 c125 0 210 -5 256 -15z"/>
<path d="M16638 9920 l-3 -1689 -125 75 c-1361 818 -3056 844 -4445 69 -805
-449 -1462 -1147 -1859 -1977 -560 -1169 -581 -2522 -59 -3708 525 -1189 1564
-2108 2803 -2479 785 -234 1599 -250 2385 -46 408 106 802 270 1155 481 77 46
143 84 145 84 3 0 5 -103 5 -230 l0 -230 1025 0 1025 0 0 5670 0 5670 -1025 0
-1025 0 -2 -1690z m-2213 -3000 c587 -51 1126 -301 1538 -714 328 -329 552
-732 657 -1179 19 -82 20 -119 20 -550 l0 -462 -30 -118 c-180 -711 -660
-1303 -1315 -1622 -227 -111 -455 -182 -705 -222 -163 -26 -569 -26 -725 0
-557 92 -1021 335 -1406 735 -367 381 -589 841 -665 1377 -25 178 -23 478 5
663 40 268 108 484 226 727 362 743 1100 1268 1904 1355 202 22 327 24 496 10z"/>
<path d="M29598 9921 l-3 -1689 -85 52 c-222 138 -531 288 -790 384 -1369 507
-2919 294 -4115 -567 -1014 -729 -1675 -1839 -1829 -3076 -107 -853 39 -1720
418 -2492 106 -215 155 -301 281 -493 307 -467 699 -873 1155 -1197 455 -323
968 -557 1519 -693 1126 -277 2317 -96 3321 504 l125 75 3 -230 2 -229 1025 0
1025 0 0 5670 0 5670 -1025 0 -1025 0 -2 -1689z m-2203 -3001 c483 -42 923
-215 1312 -516 113 -88 331 -305 415 -414 204 -265 335 -521 435 -850 l38
-125 0 -535 0 -535 -37 -123 c-101 -331 -230 -583 -437 -852 -85 -111 -312
-337 -426 -425 -341 -262 -718 -426 -1130 -491 -135 -21 -465 -30 -607 -15
-732 76 -1389 472 -1799 1085 -210 312 -358 718 -398 1088 -16 143 -13 438 4
575 131 1003 858 1823 1833 2067 261 65 537 88 797 66z"/>
<path d="M19710 10590 l0 -980 1115 0 1115 0 0 980 0 980 -1115 0 -1115 0 0
-980z"/>
<path d="M45635 9034 c-496 -29 -857 -90 -1211 -204 -338 -109 -616 -250 -892
-454 -133 -98 -412 -376 -511 -508 -244 -329 -391 -659 -471 -1058 -42 -210
-54 -338 -54 -575 0 -306 28 -499 105 -730 100 -300 243 -530 474 -760 191
-191 419 -352 701 -493 394 -197 1062 -385 2471 -696 476 -105 705 -174 941
-280 264 -119 424 -251 499 -411 26 -56 28 -68 27 -185 0 -109 -4 -134 -26
-192 -36 -96 -83 -170 -161 -254 -192 -206 -460 -327 -842 -380 -178 -24 -634
-25 -854 0 -291 32 -535 92 -718 177 -256 118 -472 342 -560 583 -39 106 -73
268 -73 347 0 26 -3 61 -6 78 l-6 31 -1139 0 -1139 0 0 -48 c0 -163 35 -457
76 -642 276 -1236 1401 -2013 3169 -2190 1295 -129 2385 51 3222 534 710 409
1137 1035 1252 1836 27 187 33 284 33 488 -1 277 -29 465 -103 687 -176 529
-581 955 -1204 1268 -368 184 -1142 406 -2365 678 -516 115 -732 174 -962 263
-305 117 -523 267 -599 411 -55 103 -61 240 -18 395 105 380 468 570 1142 599
716 31 1208 -115 1440 -428 86 -117 170 -327 222 -555 13 -60 28 -113 33 -118
4 -4 494 -7 1088 -6 l1079 3 -2 120 c-11 492 -138 959 -358 1317 -172 279
-423 537 -705 725 -192 127 -338 204 -546 286 -503 198 -1069 304 -1804 337
-205 9 -520 11 -645 4z"/>
<path d="M4155 8925 c-604 -54 -1122 -201 -1648 -466 -991 -500 -1773 -1370
-2165 -2409 -401 -1062 -377 -2261 65 -3300 527 -1235 1587 -2180 2863 -2550
1201 -348 2470 -179 3541 471 54 33 100 59 103 59 3 0 6 -103 6 -230 l0 -230
1025 0 1025 0 -2 4223 -3 4222 -1022 3 -1023 2 0 -245 c0 -135 -1 -245 -3
-245 -1 0 -63 36 -137 81 -543 324 -1155 529 -1805 604 -194 22 -629 28 -820
10z m655 -2015 c713 -91 1350 -489 1749 -1094 154 -234 244 -436 328 -734 l27
-97 4 -477 3 -478 -27 -112 c-210 -881 -905 -1589 -1779 -1813 -228 -59 -329
-70 -615 -70 -221 1 -272 4 -383 23 -524 94 -972 326 -1337 691 -378 379 -614
849 -697 1391 -27 175 -24 541 5 715 45 263 113 478 222 700 305 624 866 1093
1535 1284 137 39 272 62 500 85 67 7 374 -3 465 -14z"/>
<path d="M19710 4605 l0 -4335 1115 0 1115 0 0 4335 0 4335 -1115 0 -1115 0 0
-4335z"/>
<path d="M36510 8929 c-977 -72 -1900 -461 -2640 -1115 -671 -593 -1147 -1373
-1369 -2245 -276 -1080 -124 -2260 416 -3232 406 -730 999 -1328 1728 -1742
480 -273 1031 -457 1605 -534 985 -134 2034 90 2877 613 48 30 91 52 94 50 4
-2 7 -95 7 -206 0 -112 1 -213 1 -225 l1 -23 1025 0 1025 0 -2 4223 -3 4222
-1024 0 -1025 0 2 -225 c0 -124 -1 -232 -4 -241 -4 -13 -31 -1 -137 64 -264
159 -616 318 -920 416 -521 168 -1113 240 -1657 200z m645 -2023 c532 -77
1023 -324 1399 -702 313 -315 526 -688 643 -1128 l27 -101 3 -460 c3 -510 1
-531 -62 -741 -249 -818 -918 -1458 -1750 -1674 -311 -80 -726 -92 -1050 -29
-391 75 -777 255 -1091 509 -294 238 -552 579 -702 930 -126 295 -188 569
-199 890 -37 1088 645 2063 1682 2405 186 62 351 94 600 119 78 8 401 -4 500
-18z"/>
</g>
</svg>
