<?xml version="1.0" standalone="no"?>
<!DOCTYPE svg PUBLIC "-//W3C//DTD SVG 20010904//EN"
 "http://www.w3.org/TR/2001/REC-SVG-20010904/DTD/svg10.dtd">
<svg version="1.0" xmlns="http://www.w3.org/2000/svg"
 width="900.000000pt" height="1237.000000pt" viewBox="0 0 900.000000 1237.000000"
 preserveAspectRatio="xMidYMid meet">

<g transform="translate(0.000000,1237.000000) scale(0.100000,-0.100000)"
fill="#000000" stroke="none">
<path d="M2394 12316 c-92 -95 -85 -139 56 -315 89 -110 98 -125 90 -149 -28
-87 -121 -426 -122 -445 -1 -12 -46 -191 -100 -397 -158 -600 -247 -936 -283
-1070 -18 -69 -73 -273 -120 -455 -55 -209 -95 -343 -110 -365 -28 -43 -40
-82 -55 -180 -18 -115 -30 -153 -57 -181 -29 -31 -83 -202 -83 -264 0 -23 9
-58 20 -80 11 -22 20 -57 20 -80 0 -50 29 -99 71 -121 43 -22 121 -15 152 15
13 11 31 21 39 21 9 0 23 7 31 14 8 8 68 24 133 36 198 35 303 60 424 102 162
57 227 89 286 140 28 24 75 61 103 82 62 46 80 77 86 153 8 97 36 186 65 200
13 6 32 22 42 35 l18 23 62 -65 c54 -57 114 -125 136 -156 4 -5 16 -14 27 -20
26 -14 64 -90 126 -249 90 -230 137 -301 245 -361 40 -22 62 -40 57 -47 -7
-13 -134 -211 -137 -213 0 -1 -50 -9 -110 -18 -153 -22 -177 -43 -140 -121 14
-29 49 -55 96 -69 15 -4 -2 -37 -101 -193 -146 -232 -183 -304 -220 -433 -17
-60 -46 -129 -70 -169 -47 -77 -61 -118 -61 -176 0 -31 -17 -75 -70 -178 -39
-75 -67 -137 -62 -137 5 0 30 7 56 16 26 9 49 14 51 12 2 -2 -3 -26 -11 -53
-23 -75 -14 -125 35 -189 42 -56 179 -156 213 -156 10 0 18 -2 18 -4 0 -13
-595 -1100 -729 -1332 l-156 -271 -160 -6 c-188 -8 -250 -19 -283 -50 -20 -19
-23 -29 -19 -70 6 -72 29 -90 160 -126 158 -44 237 -57 468 -81 262 -27 289
-21 289 70 0 37 -5 53 -26 73 -25 25 -191 111 -266 138 -21 7 -38 16 -38 20 0
3 126 237 281 520 154 283 340 623 412 756 73 133 135 241 139 240 3 -1 38
-38 77 -82 63 -70 74 -89 96 -162 36 -118 92 -245 117 -266 22 -19 22 -19 3
-50 -45 -76 -55 -106 -61 -187 -6 -75 -11 -90 -40 -131 -48 -66 -119 -129
-215 -191 -82 -53 -149 -116 -149 -141 0 -22 29 -54 77 -86 41 -27 55 -31 118
-31 39 0 98 7 130 16 33 9 82 20 109 24 32 4 54 14 65 28 9 13 24 20 36 17 11
-2 54 -4 96 -4 l77 -1 27 -87 c33 -107 65 -172 109 -221 29 -32 34 -46 40
-112 4 -41 14 -90 22 -108 8 -19 11 -39 8 -44 -4 -6 -10 -46 -15 -90 l-8 -79
45 -99 44 -98 -11 -190 c-10 -160 -10 -195 2 -224 7 -18 13 -38 11 -44 -1 -6
9 -44 23 -84 l25 -74 -43 -76 c-69 -119 -99 -191 -86 -206 27 -33 102 -49 225
-49 180 0 187 10 132 194 -50 171 -52 154 31 299 39 69 41 75 31 113 -12 43
-83 122 -121 134 -19 7 -21 12 -15 69 19 189 19 203 1 250 -20 53 -16 126 11
177 9 18 17 41 19 53 1 12 9 55 18 96 9 41 18 86 19 100 3 27 3 27 91 10 l57
-11 1 -117 c0 -64 4 -126 8 -137 4 -10 4 -31 0 -45 -39 -123 -79 -276 -79
-300 0 -19 7 -33 19 -40 35 -18 105 -12 155 15 26 14 60 25 77 25 29 0 29 0
29 -60 0 -64 14 -102 49 -134 18 -16 20 -26 15 -72 -9 -69 1 -101 39 -137 29
-27 32 -35 35 -101 3 -77 -4 -109 -65 -279 -26 -74 -35 -110 -27 -115 35 -23
59 -180 34 -226 -11 -21 -9 -29 20 -71 27 -39 34 -44 47 -33 11 9 47 11 127 9
61 -1 113 -5 116 -8 3 -2 -3 -10 -13 -18 -16 -11 -16 -13 -1 -19 20 -8 58 -8
78 0 36 14 23 195 -24 313 -37 96 -61 279 -53 423 6 122 7 128 28 128 11 0 26
5 33 12 9 9 12 5 13 -18 0 -16 4 -38 8 -49 5 -11 2 -46 -6 -80 -11 -46 -12
-69 -4 -96 10 -33 15 -37 54 -43 23 -3 94 -7 157 -8 107 -1 120 1 178 27 55
24 62 31 62 56 0 15 5 40 10 55 8 20 7 32 -5 50 -8 13 -15 32 -15 42 0 10 -7
45 -15 77 -12 48 -23 67 -57 96 -45 39 -44 33 -14 144 19 69 17 78 -35 157
-46 72 -72 139 -93 238 -14 69 -14 83 5 204 11 74 26 137 34 147 8 8 15 20 15
25 0 6 40 90 89 187 52 102 92 195 96 221 4 25 -2 140 -15 268 -21 212 -21
232 -8 401 8 97 19 182 24 187 5 5 25 16 45 24 35 15 37 14 84 -20 62 -44 118
-47 164 -8 17 14 31 32 31 39 0 11 49 55 62 55 2 0 2 -30 0 -67 -2 -49 2 -86
17 -132 20 -64 20 -64 0 -102 -28 -56 -25 -114 11 -174 26 -43 30 -60 30 -123
0 -77 -8 -101 -46 -142 -25 -27 -89 -152 -100 -195 -3 -14 -16 -30 -28 -36
-11 -6 -35 -25 -53 -42 -25 -23 -31 -36 -27 -57 3 -14 -2 -44 -11 -66 -22 -50
-65 -175 -65 -187 0 -11 141 1 197 18 l43 13 -3 -118 c-2 -107 0 -121 19 -147
33 -44 74 -62 165 -74 166 -21 241 7 272 100 15 47 17 74 11 204 -9 187 -23
224 -96 246 -27 8 -48 18 -48 23 0 16 30 68 40 68 10 0 24 45 40 128 8 43 6
63 -11 117 l-20 66 25 42 c13 23 52 69 86 102 57 56 63 66 95 167 37 113 42
161 24 201 -19 41 3 67 56 67 l44 0 37 -70 c20 -39 53 -89 73 -112 45 -50 78
-54 144 -15 81 48 128 189 107 320 -13 83 -13 83 13 60 38 -36 84 -53 139 -53
105 0 147 52 155 195 5 71 2 88 -22 148 -14 37 -35 118 -45 180 -20 125 -45
200 -89 266 -25 37 -28 48 -20 75 17 54 12 100 -14 152 l-26 51 19 86 c20 91
29 111 93 220 39 67 39 68 33 140 -15 161 -60 300 -143 437 -43 74 -140 181
-186 206 -17 10 -17 12 2 55 43 94 23 129 -74 129 -55 0 -65 3 -70 20 -8 25
-55 50 -94 50 -20 0 -36 9 -51 28 -12 15 -26 27 -30 27 -14 0 -110 128 -110
146 0 8 -34 82 -75 164 -79 157 -99 210 -110 289 -4 28 -15 71 -26 98 -17 43
-17 51 -4 89 17 49 10 89 -41 215 -38 96 -150 322 -170 345 -8 9 -26 56 -40
105 -33 117 -110 276 -187 392 -73 110 -99 125 -288 174 l-119 31 0 38 c0 41
-26 69 -66 69 -19 0 -22 7 -26 71 -7 99 -63 209 -130 257 -115 82 -316 95
-454 30 -97 -45 -167 -149 -194 -286 -18 -89 -58 -148 -119 -173 -63 -27 -88
-79 -61 -129 10 -19 12 -19 189 -5 l54 4 -6 -51 c-4 -29 -2 -57 3 -63 10 -13
-62 -209 -120 -328 -27 -54 -122 -167 -141 -167 -4 0 -12 13 -19 29 -6 17 -22
32 -35 35 -17 4 -25 14 -27 34 -2 22 -11 29 -46 41 -29 9 -46 21 -52 37 -12
30 -153 135 -233 172 -79 37 -123 48 -283 67 -173 21 -184 23 -184 44 0 10 -9
26 -20 36 -26 23 -25 41 5 90 33 53 33 99 -1 130 -24 23 -46 31 -124 49 -14 3
-43 28 -65 56 -75 96 -161 151 -255 165 -56 8 -170 -10 -230 -36 -133 -59
-219 -231 -220 -440 0 -63 -6 -89 -37 -165 -42 -103 -47 -163 -17 -212 24 -42
91 -87 161 -109 29 -9 53 -21 53 -27 0 -20 -53 -212 -62 -223 -12 -15 -36
-105 -43 -158 -11 -85 -46 -190 -68 -206 -13 -9 -58 -31 -102 -48 -83 -34
-134 -61 -270 -142 -45 -27 -123 -62 -180 -80 -55 -17 -105 -33 -111 -36 -14
-5 -54 57 -54 85 0 11 -13 33 -28 48 l-28 28 38 160 c21 89 38 170 38 181 0
10 66 262 146 560 344 1276 388 1437 426 1575 22 80 61 228 88 328 27 101 50
186 53 188 3 3 35 -33 72 -80 103 -130 179 -158 225 -83 28 46 26 122 -5 199
-49 121 -346 525 -419 569 -47 29 -65 24 -122 -35z m95 -10 c43 -22 127 -119
226 -259 161 -228 205 -315 205 -406 0 -33 -6 -25 -66 84 -118 214 -215 341
-358 470 -75 67 -88 89 -64 113 15 15 23 15 57 -2z m17 -886 c7 -7 -33 -172
-128 -523 -76 -281 -165 -611 -198 -732 -212 -788 -280 -1039 -284 -1042 -7
-7 -36 9 -36 20 0 6 34 140 76 297 292 1103 524 1980 524 1985 0 9 36 5 46 -5z
m2669 -736 c25 -12 63 -48 103 -98 l64 -79 -5 -81 c-2 -45 -8 -91 -12 -103 -6
-19 -2 -22 36 -30 23 -5 44 -13 46 -18 1 -6 -30 -21 -71 -34 -80 -26 -92 -26
-286 4 -121 19 -177 16 -353 -19 -156 -32 -174 -40 -199 -90 -20 -39 -21 -40
-31 -19 -14 33 9 82 42 89 14 4 44 17 66 29 93 53 132 58 410 61 143 1 272 2
288 3 l27 1 0 101 c0 130 -17 163 -62 122 -23 -20 -26 -52 -3 -33 8 7 22 10
30 6 19 -7 21 -124 2 -150 -16 -22 -70 -24 -146 -8 -85 19 -266 12 -363 -13
-17 -4 -28 -3 -28 3 0 15 39 21 223 34 92 7 167 15 167 19 0 22 -130 24 -264
4 -127 -19 -123 -19 -142 10 -16 24 -15 29 5 83 12 31 35 76 51 98 39 55 26
64 -23 17 l-40 -38 22 33 c23 34 80 74 129 93 87 34 250 35 317 3z m214 -303
c1 -77 -5 -60 -11 29 -3 42 -2 64 2 50 4 -14 8 -49 9 -79z m-2282 -71 c24 -10
59 -31 78 -47 40 -31 125 -135 125 -152 0 -23 -17 -9 -62 52 -65 89 -106 114
-203 127 -97 14 -108 17 -100 30 11 17 117 11 162 -10z m-239 -12 c-3 -7 -22
-19 -44 -26 -21 -8 -54 -20 -71 -28 -32 -13 -40 -10 -25 12 8 11 108 52 130
53 8 1 12 -5 10 -11z m2060 -150 c-2 -18 0 -33 3 -33 11 0 39 -27 39 -37 0 -6
-7 -7 -16 -4 -8 3 -25 1 -36 -5 -36 -19 -43 4 -17 60 12 28 24 51 27 51 2 0 2
-15 0 -32z m707 -10 c61 -16 125 -37 144 -46 66 -32 198 -260 262 -451 21 -64
39 -101 56 -114 l24 -20 -39 -22 c-65 -37 -185 -129 -219 -169 -41 -46 -42
-74 -2 -144 27 -49 29 -56 16 -75 -8 -12 -62 -50 -119 -85 -114 -68 -186 -92
-298 -95 l-65 -2 -30 59 c-51 102 -104 121 -248 91 -71 -15 -95 -16 -149 -6
-36 6 -82 11 -103 11 -33 0 -49 10 -124 77 -47 42 -119 110 -158 150 -40 40
-78 73 -85 74 -7 0 -23 13 -36 29 l-22 29 55 52 c71 67 105 119 151 231 33 79
40 89 59 84 16 -4 24 1 34 27 l14 32 9 -50 c5 -27 15 -70 22 -95 8 -25 17 -57
20 -71 3 -15 21 -37 43 -51 21 -14 53 -40 70 -57 18 -17 39 -31 45 -31 7 0 45
-24 84 -54 40 -30 86 -56 104 -58 32 -5 33 -5 80 96 26 56 80 159 119 230 39
72 71 131 71 133 0 1 -11 -2 -25 -7 l-25 -10 0 136 0 137 30 -6 c27 -6 31 -3
49 39 23 51 7 51 186 2z m-408 -4 c-4 -20 -21 -64 -38 -99 -31 -58 -34 -95
-10 -95 14 0 39 50 57 111 16 55 37 67 27 17 -9 -49 -108 -241 -145 -284 -18
-20 -47 -43 -65 -50 -40 -17 -103 -18 -138 -2 -36 16 -32 38 8 38 17 0 46 8
62 19 17 10 52 21 78 25 57 9 72 29 81 105 5 48 2 59 -20 88 -14 18 -31 33
-38 33 -16 0 -50 36 -39 43 4 2 20 7 34 11 15 3 46 22 69 41 23 19 51 35 62
35 18 0 20 -5 15 -36z m-1797 -42 c26 -69 21 -114 -18 -187 -22 -40 -33 -51
-56 -53 l-30 -4 35 44 c77 95 84 128 50 218 -11 27 -15 48 -11 45 5 -3 18 -31
30 -63z m1934 53 c-3 -8 -11 -13 -17 -12 -31 6 -44 -255 -15 -311 l17 -33 -56
-114 c-32 -63 -61 -111 -66 -108 -5 3 -22 26 -38 51 -42 66 -38 96 20 184 42
63 50 82 55 138 4 44 13 75 28 95 12 16 21 40 20 52 -3 37 16 73 37 73 14 0
19 -5 15 -15z m-2311 -41 c46 -16 97 -63 97 -90 0 -9 -16 -2 -46 21 -56 43
-72 44 -85 5 -6 -16 -14 -30 -18 -30 -6 0 -31 79 -31 100 0 14 30 12 83 -6z
m-233 -61 c0 -61 -15 -87 -24 -43 -5 26 -9 30 -20 21 -10 -9 -16 -8 -26 4 -11
13 -9 20 10 40 13 14 32 25 42 25 15 0 18 -8 18 -47z m2237 -30 c31 -29 43
-51 53 -91 17 -73 11 -77 -108 -77 -101 0 -147 18 -57 22 28 2 69 5 93 9 38 5
42 8 42 33 0 45 -32 65 -111 69 -70 4 -88 22 -21 22 34 0 35 1 16 16 -18 15
-18 15 4 9 15 -4 24 -1 28 9 9 23 16 20 61 -21z m-1547 -68 c9 -24 4 -55 -9
-55 -3 0 -6 18 -6 40 -1 46 2 49 15 15z m1516 -4 c-7 -11 -91 -22 -113 -14
-15 6 -15 7 3 14 27 11 116 11 110 0z m-1542 -76 c9 -14 25 -25 35 -25 17 0
18 -3 8 -29 -9 -25 -8 -33 7 -50 12 -13 18 -35 18 -63 -3 -196 -2 -195 -27
-218 -16 -15 -30 -20 -44 -15 -14 4 -23 0 -31 -15 -8 -15 -17 -19 -35 -14 -16
4 -25 2 -25 -5 0 -7 -11 -23 -25 -36 -20 -21 -34 -25 -84 -25 -91 0 -91 31 0
45 87 13 148 71 189 181 25 68 25 109 0 204 -11 41 -20 78 -20 83 0 15 18 6
34 -18z m317 1 c36 -8 106 -35 155 -59 108 -55 230 -132 218 -139 -5 -3 -40
-11 -77 -18 -65 -12 -90 -25 -99 -51 -3 -9 -9 -9 -25 0 -30 16 -53 14 -75 -6
-18 -16 -21 -15 -58 22 -22 22 -40 48 -40 58 0 15 -5 18 -22 14 -92 -21 -86
-21 -123 16 -19 19 -35 42 -35 51 0 8 -11 32 -25 52 -44 65 -38 74 58 74 45 0
112 -7 148 -14z m-431 -32 c0 -3 -15 -17 -32 -32 -18 -15 -65 -57 -106 -94
-78 -71 -173 -126 -261 -152 -68 -20 -104 -20 -167 -1 -63 19 -93 40 -78 55 8
8 31 6 89 -9 87 -23 111 -20 229 24 85 32 133 65 216 149 42 43 72 66 87 66
13 0 23 -3 23 -6z m15 -101 c-30 -176 -59 -248 -108 -275 -17 -9 -15 -3 10 25
35 40 46 72 64 186 11 68 23 101 36 101 2 0 1 -17 -2 -37z m35 -100 c0 -12 6
-23 14 -25 10 -2 6 -15 -15 -48 l-29 -45 0 76 c0 42 3 79 7 82 9 10 23 -14 23
-40z m840 -28 c19 -4 34 -15 40 -30 5 -12 42 -58 84 -101 74 -77 76 -80 76
-129 0 -33 -7 -62 -21 -85 -29 -49 -122 -170 -129 -170 -4 0 -12 11 -18 25 -7
16 -20 25 -34 25 -40 0 -142 55 -180 98 -46 51 -68 93 -83 157 l-12 50 -22
-68 c-22 -66 -24 -68 -45 -54 -11 8 -32 29 -44 48 -42 60 -17 185 40 204 9 3
30 -1 46 -9 29 -15 31 -15 54 16 21 27 36 34 104 48 74 15 80 15 96 -1 9 -9
31 -20 48 -24z m-950 -9 c0 -15 -34 -79 -52 -99 -13 -13 -34 -42 -47 -65 -24
-40 -56 -62 -91 -62 -30 0 -32 17 -5 37 63 44 87 68 106 107 11 22 33 51 47
63 25 21 42 29 42 19z m-262 -101 l23 -7 -26 -20 c-31 -25 -55 -17 -55 17 0
20 4 25 18 21 9 -2 27 -7 40 -11z m3238 -359 c45 -113 46 -148 5 -220 -73
-126 -255 -335 -358 -410 l-45 -33 -44 47 c-40 43 -44 51 -44 99 l0 53 -39
-31 -39 -31 -89 22 c-53 13 -121 22 -173 22 -75 1 -94 -3 -162 -32 -42 -19
-95 -47 -118 -63 -22 -16 -40 -26 -40 -23 0 4 17 38 37 76 l38 69 -20 67 c-24
80 -25 207 -3 267 l15 40 38 -59 c21 -33 52 -89 71 -126 44 -91 54 -97 112
-80 72 21 130 24 204 10 85 -16 107 -8 203 79 39 36 93 83 118 104 26 21 47
43 47 48 0 6 -24 36 -54 67 -56 59 -96 124 -96 154 0 10 13 32 29 50 l30 33
35 -34 c20 -19 37 -33 40 -30 2 2 13 23 25 47 26 52 40 58 80 37 l31 -16 0 34
c0 18 5 38 11 44 8 8 8 17 0 31 -6 11 -11 24 -10 29 1 13 126 -246 165 -341z
m-1737 170 c11 -13 8 -25 -17 -68 -17 -29 -44 -72 -61 -95 -37 -50 -166 -157
-181 -148 -17 11 -11 32 14 49 46 30 83 78 142 186 61 112 69 117 103 76z
m231 -220 c212 -188 285 -263 292 -299 10 -49 -64 -363 -82 -352 -7 4 -6 13 0
25 14 26 70 259 70 290 0 15 -6 35 -14 46 -14 18 -15 17 -29 -16 -10 -22 -13
-52 -10 -80 5 -42 -13 -131 -38 -198 l-11 -27 -12 30 c-9 20 -10 38 -4 54 5
14 6 31 4 38 -3 8 5 24 17 36 19 18 23 30 19 65 -5 49 -19 51 -42 6 -9 -18
-21 -29 -31 -26 -9 1 -22 -5 -29 -14 -13 -14 -18 -12 -53 27 l-38 44 6 -95 c4
-52 11 -117 16 -144 6 -33 5 -70 -2 -109 -14 -80 -24 -104 -65 -153 -25 -31
-34 -52 -34 -79 0 -36 -1 -37 -32 -32 -29 4 -38 -1 -75 -40 -52 -56 -74 -49
-38 12 14 24 24 48 23 52 -1 4 17 44 39 89 23 44 53 125 68 180 15 54 33 106
41 115 9 10 14 41 14 93 0 69 -3 80 -25 102 -14 14 -50 36 -80 50 -30 13 -55
27 -55 31 0 5 25 39 55 77 30 38 55 72 55 75 0 18 -28 31 -63 31 -68 0 -75 -9
-113 -148 -3 -10 -9 -10 -26 -1 -49 24 -177 115 -178 125 0 6 30 34 66 63 61
50 127 128 167 201 9 17 21 30 26 28 5 -2 95 -79 201 -172z m-1951 -28 c42
-36 103 -52 171 -44 43 5 51 3 36 -5 -11 -7 -51 -10 -102 -7 -71 4 -89 8 -124
33 -57 39 -84 79 -75 112 6 25 6 25 34 -19 15 -24 42 -56 60 -70z m-9 -92 c0
-1 -13 -37 -29 -81 l-28 -78 -94 -27 c-120 -34 -179 -64 -256 -134 -41 -36
-78 -59 -105 -66 -24 -6 -127 -36 -230 -66 -104 -30 -190 -54 -193 -54 -3 0
-5 13 -5 28 0 28 3 29 118 61 163 46 261 86 302 126 33 32 321 175 381 189 23
5 28 14 43 86 l18 80 39 -31 c21 -17 39 -32 39 -33z m2240 29 c0 -2 -22 -16
-49 -30 -43 -21 -50 -22 -55 -8 -8 21 -7 22 45 32 59 12 59 12 59 6z m1244
-157 c3 -18 7 -49 10 -69 6 -47 86 -252 137 -349 21 -41 70 -115 109 -165 61
-79 120 -180 120 -206 0 -5 -10 -9 -23 -9 -40 0 -294 48 -552 104 -137 30
-252 52 -254 50 -13 -12 37 -26 284 -78 451 -95 480 -100 670 -100 194 -1 194
-1 155 -81 -26 -53 -84 -104 -160 -139 -99 -46 -145 -31 -290 95 -100 86 -151
119 -220 142 -44 15 -428 73 -434 66 -2 -2 -6 -13 -10 -25 -5 -17 1 -25 29
-40 20 -10 59 -49 88 -85 29 -36 107 -123 174 -194 l122 -127 93 4 c51 3 100
8 109 12 12 5 18 1 22 -13 6 -25 5 -25 -138 -46 -55 -8 -139 -15 -186 -15 -75
0 -88 -3 -105 -21 -24 -27 -63 -47 -128 -66 -49 -14 -86 -38 -86 -54 0 -5 -9
-33 -21 -64 -30 -80 -63 -71 -78 23 -12 77 5 179 50 298 34 90 42 125 47 202
3 62 8 92 16 89 6 -2 31 -28 54 -57 50 -61 50 -60 9 -227 -14 -58 -19 -93 -13
-93 27 0 245 20 278 26 l38 6 -31 25 c-17 15 -54 56 -83 92 -64 79 -256 287
-264 284 -3 -1 -18 -41 -33 -89 -26 -82 -40 -104 -64 -104 -5 0 -3 4 5 10 8 5
12 11 9 14 -11 11 -39 -20 -48 -52 l-10 -33 34 7 c48 9 58 -15 29 -72 -12 -24
-41 -124 -64 -222 -23 -97 -43 -183 -45 -189 -3 -9 -20 -4 -57 15 -41 21 -66
27 -115 27 -52 0 -64 3 -69 18 -3 10 -16 25 -30 33 -16 11 -24 26 -24 44 0 16
-7 30 -15 34 -8 3 -15 16 -16 28 l0 23 -16 -23 -16 -23 -24 36 c-16 23 -32 35
-47 35 -25 0 -76 50 -76 75 0 19 -24 19 -40 0 -7 -8 -15 -15 -19 -15 -6 0 -21
34 -37 84 -6 21 -19 33 -43 41 -19 6 -37 17 -39 23 -6 20 21 14 61 -13 48 -33
47 -17 -1 34 -45 47 -41 67 16 77 96 17 142 67 108 119 -19 29 -36 33 -36 8 0
-13 -3 -14 -12 -5 -7 7 -22 12 -34 12 -48 0 -40 43 12 60 23 8 36 20 40 36 9
35 0 39 -38 17 -26 -15 -37 -32 -54 -83 -13 -36 -26 -85 -29 -110 -4 -25 -15
-54 -25 -65 -10 -11 -25 -33 -34 -50 l-16 -30 3 50 c2 28 13 73 25 100 12 28
24 75 27 106 l6 56 131 83 c73 46 140 84 151 84 13 1 23 -10 31 -34 6 -19 23
-41 38 -50 27 -14 29 -14 71 28 48 47 77 53 134 25 42 -20 74 -66 108 -158 23
-60 45 -102 45 -84 0 17 -44 129 -68 174 l-28 52 76 115 c43 63 80 121 82 129
5 11 8 12 19 1 11 -10 5 -29 -34 -108 -27 -53 -46 -98 -44 -100 1 -2 45 -8 96
-14 50 -6 161 -22 246 -35 173 -28 207 -30 271 -14 56 14 57 35 2 49 -24 6
-48 13 -54 14 -6 2 -16 36 -23 75 -20 112 -22 113 -192 122 -79 4 -151 8 -159
8 -8 1 10 17 39 37 75 51 203 183 286 297 39 53 73 96 77 96 4 1 9 -14 12 -31z
m-3431 -84 c7 -7 -76 -75 -121 -98 -58 -30 -57 -16 3 44 42 43 67 60 86 60 14
0 28 -3 32 -6z m-999 -84 c-7 -7 -15 -3 -24 15 -7 14 -17 25 -22 25 -17 0 5
-76 30 -102 18 -20 21 -28 11 -28 -9 0 -27 -12 -41 -27 -25 -27 -26 -33 -24
-128 2 -96 13 -140 40 -157 17 -11 -4 -25 -50 -33 -60 -9 -88 17 -90 83 -1 38
-9 59 -33 92 -57 78 -38 151 47 181 40 14 41 28 3 35 -27 6 -28 8 -18 34 13
34 49 56 87 52 15 -2 31 2 35 8 5 8 16 4 33 -14 18 -18 23 -29 16 -36z m3716
-51 c55 -12 100 -25 100 -30 0 -18 -22 -19 -70 -3 -39 13 -77 16 -170 12 -118
-4 -121 -5 -201 -47 -82 -43 -114 -50 -62 -13 74 52 201 101 265 101 21 1 82
-9 138 -20z m-713 -80 c31 -60 62 -103 86 -123 22 -17 54 -44 73 -60 l35 -29
30 29 c16 16 43 48 60 71 36 52 74 73 129 73 57 0 103 -24 149 -77 l39 -44
109 83 c155 119 181 138 187 138 14 0 4 -49 -19 -98 -28 -60 -144 -242 -154
-242 -3 1 -15 15 -26 33 -11 18 -41 43 -69 56 -41 21 -63 24 -140 24 -108 0
-147 -13 -248 -80 -77 -52 -163 -103 -172 -103 -3 0 -3 7 0 15 6 14 -2 32 -49
115 -17 30 -33 86 -47 163 -12 65 -24 125 -27 133 -3 8 -3 14 0 14 3 0 27 -41
54 -91z m-2957 36 c0 -5 -5 -3 -10 5 -5 8 -10 20 -10 25 0 6 5 3 10 -5 5 -8
10 -19 10 -25z m3685 -4 c17 -3 30 -12 30 -20 0 -7 -33 -41 -73 -74 l-73 -60
-27 26 c-43 41 -110 67 -177 67 -59 0 -59 0 -35 17 52 37 121 52 225 51 55 0
114 -3 130 -7z m-3733 -108 c-5 -110 4 -162 31 -173 19 -7 17 -9 -14 -9 -41
-1 -53 16 -64 93 -12 79 11 166 43 166 4 0 5 -35 4 -77z m3959 40 c20 -22 24
-35 20 -61 l-6 -33 -33 34 c-27 27 -32 39 -26 61 8 33 14 33 45 -1z m-651 -28
c-10 -11 -32 -36 -48 -55 -17 -19 -32 -33 -35 -30 -2 3 2 28 10 55 14 49 15
50 53 50 37 0 37 0 20 -20z m839 -85 c46 -6 94 -16 108 -23 30 -13 53 -55 53
-97 0 -26 -3 -30 -22 -25 -91 20 -120 25 -171 25 -49 0 -65 5 -112 36 -50 34
-66 59 -48 77 3 4 15 0 25 -10 17 -15 18 -15 18 10 0 29 -15 28 149 7z m-1408
-135 c-39 -79 -57 -106 -74 -109 -162 -31 -217 -48 -264 -79 -39 -26 -42 -37
-8 -37 29 0 53 -36 36 -53 -11 -11 -12 -9 -15 16 -2 20 -56 21 -73 0 -14 -17
-14 -17 -10 4 3 13 -1 24 -9 27 -18 7 -18 30 2 67 17 34 50 50 230 118 128 49
178 79 206 127 11 19 23 32 26 29 3 -3 -18 -52 -47 -110z m834 84 c39 -11 93
-58 116 -101 8 -15 -2 -11 -36 16 -55 41 -94 51 -175 43 -80 -9 -142 -34 -258
-106 -100 -61 -178 -96 -186 -82 -9 13 9 26 96 69 48 23 108 58 132 77 81 61
155 94 216 94 30 1 73 -4 95 -10z m-563 -62 c28 -55 28 -119 0 -157 -12 -16
-22 -32 -22 -36 0 -4 -43 -84 -95 -178 -65 -116 -115 -192 -155 -236 l-59 -65
-1 43 c0 60 21 104 81 167 44 46 53 64 65 117 7 35 13 80 14 102 0 30 8 47 36
78 20 23 35 49 34 61 -4 40 0 51 30 105 17 29 35 50 41 47 5 -4 19 -25 31 -48z
m-1032 -157 c22 -11 66 -26 98 -34 76 -18 157 -63 142 -81 -5 -6 -6 -15 -2
-20 4 -4 -9 -4 -28 -1 -33 7 -34 6 -16 -9 11 -8 24 -15 30 -15 5 0 17 -6 25
-14 9 -8 39 -24 66 -35 28 -11 44 -20 38 -20 -23 -1 -14 -21 14 -32 34 -13 95
-50 91 -55 -6 -5 -92 23 -134 44 -22 11 -66 25 -99 32 -33 7 -70 22 -82 32
-28 25 -67 20 -71 -9 -5 -31 25 -47 158 -83 129 -35 159 -52 160 -88 0 -10 -5
-10 -21 2 -20 14 -23 13 -40 -9 -18 -22 -21 -23 -71 -10 -31 9 -58 11 -67 6
-11 -7 -31 5 -73 43 -78 71 -144 105 -242 125 l-83 16 76 118 c42 64 80 117
84 117 4 0 25 -9 47 -20z m604 -55 c-9 -23 -36 -34 -67 -28 -23 5 -26 3 -21
-12 5 -13 2 -16 -12 -13 -37 7 -19 31 36 49 69 22 71 22 64 4z m100 -31 c26
-10 18 -24 -14 -24 -29 0 -38 9 -23 23 8 9 17 9 37 1z m116 -54 c0 -16 -11
-41 -24 -57 -13 -15 -33 -44 -45 -63 -11 -19 -21 -30 -21 -24 0 25 32 100 53
123 14 15 18 25 11 28 -7 2 -10 13 -7 24 8 29 33 5 33 -31z m-225 -53 c-4 -14
-12 -28 -18 -30 -7 -3 -29 -12 -49 -21 -45 -19 -50 -6 -11 30 36 33 22 41 -24
13 l-38 -23 16 24 c9 14 34 35 55 47 38 22 40 22 57 4 13 -12 16 -25 12 -44z
m1946 30 c20 -12 58 -42 86 -66 l50 -44 -25 -38 c-14 -22 -28 -39 -31 -39 -4
0 -28 42 -56 93 -27 50 -56 97 -64 104 -27 21 2 14 40 -10z m13 -126 c17 -37
17 -40 0 -66 l-18 -27 -38 40 c-21 23 -38 50 -38 61 0 19 6 21 66 30 6 0 19
-16 28 -38z m-2623 -15 c88 -31 187 -96 165 -108 -9 -5 -78 -10 -153 -11 -122
-2 -143 0 -184 19 -53 25 -121 82 -116 98 3 10 79 21 177 24 25 1 74 -9 111
-22z m3259 -45 c37 -26 125 -192 149 -280 30 -112 27 -177 -14 -309 -25 -77
-42 -115 -55 -122 -11 -6 -20 -7 -20 -3 0 22 -62 390 -79 473 -11 52 -31 131
-45 175 -19 60 -22 81 -13 87 15 9 45 1 77 -21z m-592 -65 c-3 -42 -12 -45
-33 -12 -15 23 -15 27 1 51 14 22 19 24 26 12 4 -9 7 -32 6 -51z m499 -9 c12
-31 30 -95 39 -144 9 -48 29 -153 45 -233 15 -79 27 -146 25 -147 -10 -10 -70
177 -81 253 -8 49 -32 144 -54 209 -23 65 -41 122 -41 126 0 5 10 5 22 0 15
-5 31 -28 45 -64z m-2528 -19 c30 -34 32 -61 2 -34 -11 10 -28 13 -57 9 -51
-7 -63 9 -28 36 36 28 49 27 83 -11z m565 -33 c-7 -17 -20 -20 -28 -6 -4 5 0
12 6 14 23 9 28 7 22 -8z m46 1 c0 -2 3 -11 6 -20 5 -12 0 -16 -19 -16 -20 0
-24 4 -20 20 4 16 33 30 33 16z m-540 -48 c0 -4 -8 -9 -17 -9 -17 -1 -17 -2 0
-6 21 -5 16 -32 -15 -76 -18 -25 -85 -69 -77 -50 2 4 17 32 32 61 15 28 23 52
17 52 -17 0 -11 29 12 52 20 20 22 20 35 3 7 -11 13 -22 13 -27z m-1041 -20
l-22 -43 45 48 c36 38 51 47 79 47 55 0 110 -20 141 -50 46 -46 34 -80 -28
-80 -13 0 -24 -4 -24 -8 0 -16 75 -46 115 -46 34 -1 41 -5 43 -23 2 -14 -2
-23 -10 -23 -7 0 -19 -4 -27 -9 -24 -15 6 -41 45 -41 20 0 34 -5 35 -12 3 -32
-5 -55 -31 -94 -31 -44 -64 -69 -103 -79 -18 -5 -27 -17 -37 -48 -8 -29 -34
-65 -85 -117 -77 -80 -174 -220 -215 -310 -13 -30 -25 -57 -26 -58 -1 -2 -32
6 -68 18 -80 28 -139 24 -215 -14 -30 -14 -56 -26 -58 -26 -2 0 4 14 13 32 9
17 21 66 26 107 7 64 16 88 54 151 30 48 55 106 70 163 33 122 77 212 196 402
100 160 132 201 87 113z m1503 31 c17 -12 46 -22 66 -23 32 -1 37 -5 44 -33 6
-25 12 -31 26 -26 9 3 14 3 10 -1 -3 -4 1 -28 9 -52 18 -54 10 -69 -14 -26
-12 20 -25 30 -38 29 -16 -2 -21 5 -23 29 -3 29 -7 32 -47 39 -46 6 -75 33
-75 67 0 23 5 23 42 -3z m-1161 -5 c38 -8 69 -19 69 -23 0 -12 -48 -31 -80
-31 -33 0 -87 41 -76 58 9 15 4 15 87 -4z m598 -61 c-37 -64 -96 -139 -147
-190 -45 -45 -79 -98 -266 -420 -59 -102 -71 -117 -74 -95 -2 15 -7 39 -13 53
-9 23 2 52 100 246 l109 220 66 42 c36 24 87 64 113 89 102 98 153 123 112 55z
m-426 11 c42 -14 45 -17 34 -35 -9 -14 -9 -21 1 -31 11 -11 16 -10 26 5 7 9
16 17 20 17 16 0 3 -26 -36 -72 -41 -50 -42 -50 -91 -45 -39 5 -55 12 -73 34
-22 27 -34 90 -15 79 5 -3 16 6 25 20 10 14 27 29 39 34 12 5 22 9 23 9 0 1
21 -6 47 -15z m2626 -131 c29 -39 22 -53 -14 -29 -31 21 -63 81 -70 138 l-6
43 33 -60 c18 -33 44 -75 57 -92z m-1989 119 c0 -5 -6 -16 -13 -27 -10 -13
-16 -15 -21 -6 -4 6 -2 18 4 26 13 16 30 20 30 7z m1840 -127 c117 -142 172
-191 279 -247 64 -32 67 -33 195 -33 110 0 131 -2 131 -15 0 -12 -20 -16 -112
-18 -134 -3 -183 11 -311 90 -103 64 -168 128 -253 248 -73 103 -76 110 -55
110 8 0 65 -61 126 -135z m-1580 89 c0 -39 23 -74 90 -137 53 -50 70 -76 134
-207 70 -142 103 -230 86 -230 -13 0 -26 24 -44 85 -38 125 -119 258 -222 367
-60 62 -64 69 -64 113 0 28 4 44 10 40 6 -3 10 -17 10 -31z m2060 -10 c0 -26
-52 -70 -110 -91 -54 -20 -160 -40 -160 -30 0 3 26 13 58 22 69 20 143 59 173
91 26 28 39 30 39 8z m-2400 -59 c-56 -58 -72 -41 -19 20 22 25 35 33 42 26 8
-8 1 -22 -23 -46z m-136 -57 c-60 -95 -469 -628 -495 -644 -6 -3 19 36 55 87
36 52 110 162 165 244 184 277 242 355 257 350 6 -2 17 1 25 5 23 15 21 4 -7
-42z m1565 15 c6 -21 11 -65 11 -98 0 -79 9 -93 44 -70 14 10 26 13 26 7 0 -6
-4 -14 -10 -17 -5 -3 -10 -12 -10 -20 0 -12 7 -12 44 -1 48 15 83 36 159 99
55 45 75 42 31 -4 -69 -74 -237 -158 -289 -145 -16 4 -38 26 -61 61 -50 80
-52 103 -14 169 17 31 38 56 45 56 8 0 19 -17 24 -37z m-250 -25 c-1 -22 -27
-84 -28 -67 -2 29 11 79 20 79 5 0 9 -6 8 -12z m-1279 -27 c0 -5 -7 -28 -15
-51 -8 -23 -15 -49 -15 -56 0 -45 165 -166 510 -374 169 -102 205 -130 214
-166 5 -17 13 -24 30 -24 14 0 31 -7 40 -15 8 -8 22 -15 30 -15 9 0 16 -7 16
-16 0 -10 -4 -12 -12 -7 -7 4 -33 10 -58 13 -40 4 -46 8 -56 38 -15 46 -24 53
-164 128 -157 83 -261 151 -417 270 -135 105 -163 134 -163 173 0 32 35 111
50 111 5 0 10 -4 10 -9z m2005 -51 l0 -45 -43 3 c-23 1 -52 -3 -64 -9 l-21
-12 21 28 c12 15 22 36 22 46 0 23 28 40 60 36 23 -2 25 -6 25 -47z m-1503
-43 c95 -107 122 -145 151 -215 32 -75 32 -72 9 -72 -10 0 -29 -11 -42 -25
l-24 -25 -31 68 c-23 48 -46 80 -79 108 -84 70 -130 159 -105 206 27 52 39 47
121 -45z m626 68 c88 -27 150 -101 140 -167 -3 -18 -7 -14 -19 21 -25 72 -53
86 -167 86 -88 0 -102 -3 -149 -29 -28 -15 -75 -50 -104 -77 -38 -35 -55 -45
-61 -36 -12 19 -11 21 45 74 69 65 140 113 191 129 54 17 63 17 124 -1z m177
-77 c-8 -62 -8 -63 -21 -33 -9 24 -10 40 -1 73 16 62 31 36 22 -40z m575 57
c0 -2 -11 -21 -25 -41 -30 -45 -24 -58 24 -49 20 4 33 4 30 0 -4 -3 -67 -44
-140 -89 l-133 -84 -38 31 c-21 17 -35 34 -31 37 5 4 41 20 81 35 60 22 85 39
140 94 58 58 92 83 92 66z m-470 -66 c17 -39 2 -90 -40 -140 -30 -37 -97 -72
-87 -46 2 7 15 59 27 115 l23 102 32 0 c27 0 35 -5 45 -31z m620 -43 c0 -19
14 -88 31 -153 28 -109 32 -183 11 -183 -16 0 -51 101 -67 195 -10 55 -26 115
-36 133 l-18 32 23 -6 c13 -3 27 -1 30 5 14 22 26 10 26 -23z m-960 -6 c0 -16
-4 -30 -8 -30 -4 0 -13 14 -19 30 -10 27 -9 30 8 30 14 0 19 -7 19 -30z m402
-37 c35 -34 35 -43 -1 -77 -26 -24 -31 -26 -50 -14 -25 15 -25 18 -6 54 8 16
15 37 15 47 0 24 9 22 42 -10z m-1376 -274 c44 -41 116 -104 162 -139 45 -35
81 -65 79 -66 -1 -2 -93 6 -202 17 -168 16 -208 23 -252 45 -57 28 -173 144
-173 173 0 22 52 91 142 186 l62 67 52 -104 c44 -86 65 -115 130 -179z m1822
230 c13 -22 30 -74 38 -116 8 -42 29 -103 47 -137 l32 -62 -17 -44 c-9 -25
-17 -62 -17 -82 -1 -21 -4 -38 -7 -38 -15 0 -172 156 -194 194 -14 23 -43 66
-65 96 l-39 53 94 89 c52 48 97 88 100 88 3 0 15 -18 28 -41z m-647 -50 l-10
-24 0 26 c-1 14 2 29 6 33 12 12 14 -9 4 -35z m335 -62 c72 -75 173 -207 159
-207 -24 0 -175 90 -211 125 -38 38 -51 45 -84 45 -22 0 -40 3 -40 6 0 9 84
114 91 114 3 0 42 -37 85 -83z m1087 -188 c14 -48 30 -96 36 -107 14 -25 14
-82 1 -102 -8 -12 -10 -10 -10 10 0 14 -23 105 -52 203 -42 146 -57 183 -80
205 -36 35 -35 42 6 42 19 0 38 6 42 12 5 7 13 -29 20 -82 7 -52 23 -134 37
-181z m-1508 240 c36 -12 65 -26 65 -32 0 -5 -10 -19 -23 -31 -23 -22 -24 -22
-91 -5 -67 17 -69 17 -105 -3 -97 -55 -170 -134 -145 -158 5 -4 29 -12 54 -18
25 -5 53 -13 64 -17 17 -8 17 -6 2 23 -20 39 -20 52 -1 52 28 0 62 -30 80 -70
11 -24 25 -40 35 -40 9 0 27 -11 40 -25 26 -27 46 -32 53 -12 2 6 8 9 12 5 4
-4 3 -13 -3 -20 -9 -11 -14 -128 -5 -128 9 0 59 27 65 35 5 6 8 6 8 -2 0 -6
-31 -44 -70 -84 -45 -47 -74 -87 -82 -113 l-13 -41 -55 3 c-68 4 -110 11 -110
20 0 4 24 5 54 4 60 -4 96 10 96 36 0 14 31 84 82 185 6 12 4 27 -4 45 -18 37
-57 40 -87 8 l-24 -25 -51 54 c-44 47 -57 55 -88 55 -36 0 -58 -14 -77 -48
-16 -29 -26 -3 -26 67 0 49 -5 75 -19 96 -13 20 -16 33 -9 44 6 9 58 49 117
89 122 83 148 88 261 51z m179 -98 c-43 -53 -115 -103 -129 -89 -3 3 -2 25 2
49 5 38 14 51 67 95 l61 52 24 -23 24 -24 -49 -60z m924 -86 l-10 -180 -39
-77 c-22 -43 -39 -80 -39 -83 0 -3 9 -5 20 -5 11 0 20 -5 20 -12 0 -16 -60
-78 -76 -78 -12 0 -49 52 -82 116 l-21 41 44 149 c29 96 45 169 45 204 l0 55
29 -61 c39 -83 51 -88 51 -21 0 44 5 62 31 96 17 24 32 41 33 39 2 -1 -1 -84
-6 -183z m-1556 18 c10 -9 18 -21 18 -26 0 -6 -9 -2 -20 8 -29 26 -53 4 -44
-41 4 -21 2 -34 -4 -34 -6 0 -14 16 -18 35 -5 27 -2 41 11 55 22 24 33 25 57
3z m812 -31 c86 -68 119 -86 218 -120 127 -43 215 -116 320 -263 26 -36 59
-71 73 -77 14 -6 25 -18 25 -25 0 -29 -23 -78 -40 -87 -24 -13 -128 -13 -210
1 -80 13 -126 39 -215 122 l-69 64 23 54 c13 30 25 82 28 116 5 56 3 63 -20
87 -35 35 -69 33 -124 -9 -53 -41 -64 -37 -72 27 -8 54 -48 84 -128 94 l-57 7
29 23 c32 26 50 31 114 33 37 1 51 -5 105 -47z m-757 -140 c-12 -11 -19 -11
-36 -3 -29 16 -27 29 4 23 25 -4 30 5 27 48 -1 8 2 22 6 30 4 9 8 -6 10 -34 2
-33 -1 -54 -11 -64z m127 -116 c26 -12 50 -16 73 -11 42 8 43 -8 2 -28 -40
-19 -59 -13 -100 30 -19 20 -29 34 -24 31 6 -2 28 -12 49 -22z m-2072 -64 c8
-8 3 -31 -14 -78 -24 -66 -26 -68 -69 -78 l-44 -11 -3 -52 -3 -53 -48 0 c-59
0 -76 17 -74 73 3 54 79 208 111 223 26 13 124 -4 144 -24z m1993 -19 c21
-116 125 -204 224 -190 20 3 42 6 50 8 21 5 114 -182 142 -285 37 -134 24
-296 -36 -465 -42 -118 -82 -308 -105 -501 -20 -169 -36 -222 -103 -357 -37
-72 -71 -134 -76 -137 -24 -15 -36 40 -35 164 2 158 10 201 84 433 68 214 81
265 70 272 -31 19 -245 -207 -297 -313 -23 -48 -25 -61 -20 -130 4 -57 13 -90
36 -134 23 -45 26 -58 15 -58 -44 0 -85 56 -109 148 -28 106 12 177 245 430
47 52 100 110 117 130 l33 37 29 -35 30 -35 -18 61 c-22 74 -28 84 -46 84 -27
0 -69 -55 -152 -199 -23 -41 -44 -68 -47 -60 -2 8 -9 34 -16 59 -6 25 -23 65
-36 89 -29 52 -29 52 -7 44 19 -7 14 3 -23 54 -31 40 -30 43 6 43 39 0 38 11
-5 59 -26 28 -61 50 -123 76 -105 43 -132 60 -132 81 0 13 10 15 50 12 47 -3
50 -2 50 21 0 47 23 100 69 156 25 31 55 68 65 81 15 18 17 27 9 35 -16 16
-38 0 -80 -57 -20 -27 -32 -40 -28 -29 4 11 10 30 12 41 4 19 1 21 -21 17 -14
-3 -26 -1 -26 4 0 13 51 83 79 107 35 31 26 39 -39 31 -65 -8 -71 -2 -47 42
20 35 188 214 197 208 4 -3 11 -21 15 -42z m1888 13 c18 -7 46 -28 62 -46 l30
-32 -42 21 c-51 26 -95 26 -148 2 -76 -34 -117 -104 -149 -253 -4 -16 -12 -28
-19 -28 -11 0 -12 14 -5 68 14 104 25 127 86 182 46 40 54 52 42 59 -17 12
-14 15 25 29 42 15 80 14 118 -2z m56 -99 c28 -23 71 -131 71 -177 l0 -45 -20
33 c-23 38 -31 35 -65 -18 -28 -44 -55 -56 -86 -39 -20 10 -21 17 -16 74 6 59
4 66 -23 101 -34 42 -35 47 -17 63 35 29 125 33 156 8z m-3083 -154 c52 -100
58 -117 58 -175 0 -50 -7 -80 -36 -148 -36 -85 -36 -86 -31 -197 5 -95 3 -116
-11 -138 -23 -35 -34 -24 -76 67 -45 97 -45 179 -1 328 35 119 37 155 16 255
-8 39 -15 93 -15 120 l0 50 20 -25 c10 -14 45 -75 76 -137z m3149 -123 c44
-88 68 -186 62 -256 -8 -85 -21 -108 -55 -99 -85 21 -127 100 -120 224 4 71 3
80 -14 84 -23 7 -23 24 1 32 10 3 31 24 45 46 32 48 43 43 81 -31z m-364 -16
c16 -36 25 -45 40 -41 16 4 39 -17 39 -36 0 -12 -53 -17 -65 -7 -12 10 -45
102 -45 124 0 18 14 1 31 -40z m-2392 -34 c175 -88 292 -354 294 -665 1 -120
-13 -189 -33 -169 -5 5 -16 69 -24 142 -26 230 -56 230 -117 2 l-12 -45 -14
70 c-8 39 -18 74 -23 79 -19 20 -56 -201 -45 -274 4 -25 29 -88 56 -140 l50
-95 -28 -3 c-20 -3 -34 3 -50 22 -28 33 -57 126 -43 140 15 15 12 42 -6 61
-12 11 -19 43 -24 98 -4 53 -9 76 -14 65 -12 -26 -22 -22 -46 18 -12 19 -24
33 -26 31 -7 -6 37 -177 77 -300 44 -134 43 -130 27 -124 -19 6 -48 -11 -48
-29 0 -14 2 -14 16 0 34 35 40 24 48 -91 l6 -83 -31 0 c-44 0 -92 25 -112 60
-10 16 -22 69 -28 117 -5 48 -12 89 -14 92 -3 2 -8 -10 -11 -27 -8 -40 -20
-40 -66 -2 -81 67 -125 220 -115 400 6 131 55 256 87 224 5 -5 20 -45 32 -88
21 -74 47 -110 64 -93 4 4 -3 31 -16 60 -28 63 -32 120 -9 125 9 1 46 -24 83
-58 37 -33 71 -58 76 -55 13 8 -11 76 -73 205 -80 165 -101 256 -76 329 20 57
77 58 188 1z m2001 -5 c0 -10 -16 -4 -40 16 l-25 20 33 -16 c17 -8 32 -18 32
-20z m95 15 c-28 -12 -55 -12 -55 0 0 6 17 10 38 9 30 0 33 -2 17 -9z m193
-40 c74 -35 192 -144 192 -178 0 -12 -4 -22 -10 -22 -5 0 -10 5 -10 12 0 36
-129 151 -220 195 -25 12 -38 23 -30 23 8 0 43 -13 78 -30z m-299 -52 c-14
-49 -11 -154 5 -192 8 -18 36 -58 63 -87 69 -77 98 -119 81 -119 -19 0 -38 17
-81 70 -51 64 -85 143 -92 215 -7 61 7 145 25 145 5 0 5 -14 -1 -32z m286 -48
c69 -41 70 -42 30 -36 -22 3 -68 6 -102 6 -43 0 -66 5 -78 16 -21 22 -16 46
14 60 29 15 43 10 136 -46z m5 -102 c47 -15 49 -21 15 -36 -16 -7 -25 -8 -25
-2 0 6 -15 19 -32 30 -39 23 -19 27 42 8z m220 -174 c0 -90 -37 -230 -56 -212
-4 4 3 30 15 58 16 37 23 74 24 135 2 91 17 108 17 19z m-2009 -14 c26 -22 58
-44 71 -50 21 -10 46 -62 65 -137 17 -68 -105 31 -155 125 -34 64 -47 102 -36
102 4 0 29 -18 55 -40z m1380 -131 c16 -32 19 -50 14 -82 -10 -58 -14 -61 -36
-33 -11 13 -36 30 -57 37 -55 17 -57 21 -26 34 16 7 41 28 54 48 14 20 26 37
27 37 2 0 12 -18 24 -41z m-168 -48 c5 -5 -15 -11 -44 -15 -57 -8 -65 -5 -55
20 5 13 14 15 49 10 23 -4 46 -11 50 -15z m6 -61 c19 -16 32 -32 30 -35 -6 -6
-99 24 -113 35 -4 5 -5 13 -2 19 12 19 50 11 85 -19z m67 -11 c31 -34 27 -35
-23 -4 -34 21 -42 35 -20 35 7 0 26 -14 43 -31z m58 -3 c25 -33 26 -37 14 -83
-15 -58 -28 -77 -28 -39 0 19 -11 38 -32 58 l-32 30 37 -15 c47 -20 55 -7 23
36 -15 19 -26 37 -26 40 0 17 20 4 44 -27z m-154 -42 c0 -8 -6 -14 -13 -14
-19 0 -27 10 -20 25 6 17 33 8 33 -11z m-2495 -44 c4 -6 11 -10 17 -10 6 0 3
9 -7 20 -23 25 -15 34 17 20 28 -13 76 -84 101 -148 30 -77 38 -134 38 -288 0
-116 3 -154 13 -157 9 -3 12 -15 9 -31 -5 -24 -9 -26 -57 -25 -44 0 -48 2 -28
11 12 6 22 16 22 22 0 6 5 49 10 96 15 127 -2 263 -47 367 -36 82 -47 93 -98
93 -20 0 -55 45 -55 70 0 11 54 -22 65 -40z m2605 -9 c5 -11 10 -68 10 -127 0
-99 2 -110 25 -140 14 -18 25 -44 25 -59 0 -14 7 -42 15 -62 26 -62 14 -181
-18 -175 -9 2 -30 -7 -46 -19 -24 -17 -39 -21 -75 -17 -58 7 -76 22 -76 62 0
17 -6 56 -14 86 -14 51 -13 58 5 96 10 22 22 73 25 115 5 67 3 77 -19 109
l-24 34 46 22 c73 36 78 28 86 -133 4 -76 11 -146 17 -155 6 -13 5 -18 -6 -18
-8 0 -18 5 -21 10 -3 6 -11 10 -18 10 -8 0 -8 -3 1 -12 7 -7 12 -19 12 -27 -1
-12 -6 -10 -21 8 -11 13 -22 21 -26 17 -11 -11 29 -46 52 -46 13 0 33 9 46 19
21 17 22 22 12 40 -9 14 -13 65 -13 154 0 117 -2 136 -18 150 -29 27 -78 32
-108 12 -24 -15 -28 -16 -42 -1 -13 12 -13 20 -4 40 l11 26 47 -20 c25 -11 52
-20 60 -20 18 0 18 25 -1 44 -24 23 -18 28 15 11 16 -8 34 -24 40 -34z m-1785
-131 c3 -5 1 -10 -4 -10 -6 0 -11 5 -11 10 0 6 2 10 4 10 3 0 8 -4 11 -10z
m-805 -128 c29 -29 60 -114 60 -162 0 -39 -18 -50 -79 -50 -57 0 -94 -20 -85
-45 7 -17 -49 -59 -101 -76 -45 -15 -273 -15 -289 1 -16 16 20 55 83 88 33 18
76 52 95 75 41 50 163 155 209 179 46 25 75 22 107 -10z m277 -1 c50 -23 73
-62 73 -125 0 -84 -22 -105 -125 -120 l-40 -5 0 134 0 135 25 0 c14 0 44 -9
67 -19z m338 -163 c15 -29 41 -69 57 -89 15 -20 28 -46 28 -58 0 -31 35 -126
58 -159 18 -24 19 -33 10 -68 -14 -52 -5 -86 35 -132 33 -37 41 -61 22 -63 -5
0 -38 2 -71 6 l-62 6 -6 40 c-3 21 -24 74 -45 116 -50 98 -71 195 -78 353 -7
141 -1 147 52 48z m-1625 25 c0 -10 -274 -513 -280 -513 -3 0 -11 4 -19 9 -11
7 15 59 122 242 75 129 139 242 142 252 7 16 35 25 35 10z m2594 -302 c9 -90
15 -166 12 -168 -5 -5 -53 196 -62 259 -4 26 -3 59 0 74 6 23 9 25 21 13 9 -9
19 -72 29 -178z m-382 157 c14 -12 13 -33 -7 -222 -19 -167 -29 -224 -52 -283
-15 -40 -31 -73 -35 -73 -5 0 -8 26 -8 58 0 33 -6 79 -13 103 -11 36 -11 49
-1 74 19 44 17 86 -6 110 -19 20 -19 24 -5 57 11 28 13 52 6 105 -6 47 -5 70
3 75 18 12 101 9 118 -4z m291 -48 c-4 -46 1 -92 22 -193 l27 -133 -24 -48
-25 -49 -22 104 c-31 140 -39 291 -18 342 9 20 23 37 31 37 13 0 15 -10 9 -60z
m907 38 c0 -13 3 -32 6 -43 5 -19 0 -20 -60 -20 -67 0 -71 2 -60 29 5 13 9 14
20 5 8 -7 16 -10 17 -8 2 2 11 16 20 32 22 34 57 37 57 5z m-1357 -87 c17 -17
17 -21 -9 -98 l-28 -81 27 -78 c30 -92 43 -154 31 -154 -5 0 -17 7 -27 15 -11
7 -47 17 -82 20 -34 4 -68 11 -75 15 -10 6 -13 37 -12 119 2 114 -11 150 -24
65 l-6 -45 -23 21 c-22 21 -23 24 -9 63 28 78 64 128 107 148 48 22 101 18
130 -10z m1441 -83 c-1 -19 -9 -44 -20 -56 -10 -12 -26 -41 -35 -64 l-17 -43
-12 30 c-10 25 -8 31 9 45 34 26 58 130 30 130 -5 0 -7 5 -4 11 5 7 14 5 28
-4 16 -11 22 -25 21 -49z m-134 -3 c0 -27 15 -34 24 -10 6 17 36 9 36 -10 0
-7 -16 -27 -36 -45 -27 -23 -37 -40 -36 -59 0 -25 -5 -29 -51 -44 -67 -20
-147 -32 -147 -21 0 5 14 51 31 102 35 102 44 109 137 111 38 1 42 -1 42 -24z
m235 -22 c22 -27 24 -27 42 -10 11 9 22 17 25 17 7 0 28 -91 28 -120 0 -24
-17 -26 -42 -3 -17 15 -19 15 -38 -2 -15 -13 -17 -22 -9 -36 10 -19 3 -69 -10
-69 -4 0 -12 14 -18 30 -13 34 -45 40 -75 13 -17 -15 -18 -15 -18 9 0 15 9 31
21 39 16 11 21 28 25 78 2 35 7 68 10 72 10 17 35 9 59 -18z m-856 -199 c19
-44 12 -49 -18 -14 -16 19 -27 38 -25 42 8 13 31 -3 43 -28z m676 -28 c-3 -12
-6 -61 -7 -111 l-3 -89 30 -16 c43 -22 209 -21 253 2 24 13 32 13 32 3 0 -7
-16 -20 -36 -30 -49 -23 -233 -18 -281 8 -50 27 -54 43 -47 176 l7 119 28 -20
c20 -15 27 -28 24 -42z m-3613 1 c153 -54 231 -88 243 -106 3 -6 -4 -15 -17
-22 -47 -25 -219 -1 -750 108 -17 3 -28 1 -28 -6 0 -6 -4 -11 -10 -11 -17 0
-11 17 14 47 23 27 29 28 138 34 255 13 242 14 410 -44z m2863 21 c-3 -13 -9
-32 -12 -44 -2 -11 5 -102 16 -201 26 -217 61 -341 121 -426 58 -83 54 -129
-6 -66 -39 41 -81 62 -110 55 -52 -13 -129 -103 -144 -170 -7 -27 -8 -23 -9
23 -1 38 5 63 20 87 25 41 28 123 6 175 -8 20 -36 64 -61 99 l-47 64 1 81 c1
44 1 88 0 97 -1 19 62 117 112 174 28 32 90 72 112 74 4 0 5 -10 1 -22z m45
-33 c10 -12 10 -35 -1 -112 -11 -84 -14 -93 -20 -63 -4 19 -8 55 -10 80 -4
106 3 129 31 95z m-762 -70 c3 -2 -9 -20 -27 -40 -17 -20 -31 -40 -31 -45 0
-6 -4 -10 -10 -10 -11 0 -13 33 -4 80 6 29 9 31 37 26 17 -3 33 -8 35 -11z
m414 -325 c-3 -218 -21 -395 -42 -395 -12 0 -15 15 -14 80 1 151 21 502 29
515 19 30 28 -41 27 -200z m-921 68 c26 -22 68 -23 113 -4 l34 14 -5 -62 c-4
-43 -1 -72 11 -100 9 -21 16 -62 16 -90 0 -48 -1 -49 -13 -26 -9 17 -22 26
-45 28 -40 4 -40 15 -2 42 32 23 39 50 16 69 -10 9 -12 21 -5 49 5 20 9 40 9
43 0 4 -34 9 -76 11 -66 3 -78 7 -95 28 -10 14 -18 41 -18 60 l0 35 19 -40
c11 -22 30 -48 41 -57z m638 -51 c17 -8 34 -37 57 -97 34 -89 41 -120 24 -120
-5 0 -10 7 -10 15 0 12 -17 15 -91 15 -74 0 -102 -5 -155 -26 -65 -26 -91 -26
-63 0 34 31 104 49 187 48 80 -1 83 0 80 21 -2 12 -9 21 -17 19 -27 -6 -74 9
-63 20 6 6 8 17 5 25 -3 7 3 23 13 35 19 21 19 21 -16 15 -19 -3 -45 -9 -58
-13 -13 -4 -22 -3 -21 2 5 30 -2 34 -28 19 -16 -8 -38 -22 -50 -31 -13 -9 -23
-12 -23 -6 0 5 21 24 48 41 38 25 57 31 102 31 30 0 66 -6 79 -13z m390 -144
c0 -32 -4 -67 -8 -78 -7 -17 -8 -17 -15 8 -8 33 3 127 15 127 5 0 9 -26 8 -57z
m-1011 -175 c-9 -31 -9 -44 0 -59 9 -14 10 -36 1 -92 -16 -105 -32 -111 -25
-9 17 240 18 247 27 223 6 -14 5 -38 -3 -63z m128 -85 c-2 -2 -14 0 -25 6
l-21 12 23 34 22 34 3 -40 c2 -23 1 -43 -2 -46z m110 -96 c53 -58 45 -104 -28
-157 -31 -23 -52 -30 -87 -30 -59 0 -80 12 -62 34 15 18 47 21 56 6 14 -22 23
-8 12 19 -9 25 -8 33 7 50 17 19 17 20 -6 23 -17 2 -24 10 -26 31 -4 31 -1 30
58 -11 21 -14 19 -9 -13 34 -43 59 -43 61 -19 67 24 5 68 -21 108 -66z m712
51 c14 -14 16 -61 3 -106 -6 -18 -13 -112 -16 -210 -6 -153 -4 -193 14 -293
11 -64 29 -139 41 -168 26 -66 25 -75 -1 -60 -70 37 -133 32 -215 -17 -31 -19
-57 -34 -59 -34 -1 0 -5 29 -8 64 -3 35 -14 80 -23 100 -20 40 -19 41 50 231
20 54 25 88 25 150 0 44 -4 89 -8 100 -6 14 -3 24 8 32 15 12 14 14 -1 24 -10
5 -18 16 -18 24 0 22 64 55 109 55 34 0 41 3 41 20 0 18 -7 20 -69 20 -56 0
-75 -4 -105 -25 -32 -22 -36 -22 -36 -6 0 63 222 145 268 99z m132 -83 c5 -25
-1 -36 -33 -67 -43 -42 -46 -43 -71 -25 -16 12 -16 18 -6 58 14 52 34 71 75
67 24 -2 31 -8 35 -33z m285 -104 c22 -10 48 -27 57 -38 32 -36 61 -147 43
-165 -3 -3 -22 -1 -43 5 -33 9 -42 7 -76 -17 -73 -49 -109 -30 -105 56 l3 53
-49 3 c-60 4 -86 22 -32 22 25 0 37 4 37 14 0 8 6 17 13 19 27 12 -15 24 -66
19 -69 -6 -53 12 28 32 82 20 143 19 190 -3z m-1195 -353 c36 -19 48 -31 60
-65 20 -59 9 -67 -94 -71 -87 -4 -181 10 -210 31 -15 11 -14 15 9 47 58 79
149 101 235 58z"/>
<path d="M4454 6020 c3 -14 6 -54 6 -90 l0 -65 40 -1 40 -1 -25 29 c-17 20
-25 42 -25 68 0 24 -8 46 -21 61 l-21 24 6 -25z"/>
<path d="M1324 1632 c-71 -25 -99 -46 -132 -94 -23 -35 -27 -52 -27 -112 0
-131 60 -181 258 -216 171 -30 207 -56 207 -147 0 -44 -5 -58 -31 -88 -41 -46
-91 -59 -199 -51 -130 9 -130 9 -130 72 l0 54 -50 0 -50 0 0 -89 0 -90 58 -13
c32 -7 117 -13 197 -13 128 0 144 2 185 24 94 49 134 110 133 207 -1 132 -84
198 -283 225 -80 11 -147 36 -168 62 -22 27 -26 90 -8 129 32 67 121 91 254
68 l72 -12 0 -54 0 -54 50 0 50 0 0 89 0 88 -57 12 c-32 7 -107 15 -168 17
-90 4 -119 1 -161 -14z"/>
<path d="M3404 1641 c-141 -36 -237 -151 -266 -318 -34 -201 63 -401 225 -461
71 -27 182 -29 255 -6 210 68 304 349 199 597 -24 57 -110 142 -170 167 -56
24 -187 36 -243 21z m169 -92 c46 -13 112 -69 137 -118 51 -102 51 -263 -1
-368 -46 -95 -109 -133 -218 -133 -71 0 -125 25 -173 78 -54 60 -71 128 -66
261 3 91 8 113 31 158 56 109 168 156 290 122z"/>
<path d="M4905 1637 c-62 -21 -97 -42 -138 -84 -80 -79 -117 -180 -117 -314 0
-188 96 -337 248 -385 79 -25 210 -16 277 18 144 74 224 256 196 444 -21 144
-91 249 -199 300 -68 32 -201 42 -267 21z m188 -89 c59 -18 120 -81 146 -152
17 -45 22 -81 22 -150 0 -116 -19 -180 -71 -239 -53 -60 -107 -81 -198 -75
-107 6 -174 60 -213 173 -17 50 -18 216 -2 270 44 144 174 215 316 173z"/>
<path d="M6762 1636 c-103 -34 -154 -95 -160 -192 -5 -79 1 -104 35 -145 37
-44 92 -66 224 -90 128 -23 162 -37 189 -82 40 -66 14 -146 -60 -184 -50 -26
-143 -31 -230 -12 l-50 11 0 54 0 54 -55 0 -55 0 0 -89 0 -89 88 -16 c113 -21
253 -21 323 0 109 33 179 136 165 248 -13 111 -88 165 -276 196 -133 23 -175
45 -190 99 -34 127 86 197 273 160 l57 -12 0 -53 0 -54 55 0 56 0 -3 87 -3 88
-55 13 c-86 20 -277 25 -328 8z"/>
<path d="M7471 1632 c-68 -25 -101 -50 -128 -98 -65 -114 -25 -241 92 -290 22
-9 85 -24 140 -34 169 -30 209 -58 207 -147 0 -49 -19 -82 -65 -117 -34 -25
-169 -33 -242 -14 l-50 13 -3 53 -3 52 -50 0 -49 0 0 -89 0 -89 53 -12 c28 -7
106 -15 173 -17 159 -7 217 9 283 75 92 92 94 214 5 299 -48 47 -96 65 -236
87 -47 8 -99 21 -116 30 -68 35 -81 130 -26 187 46 48 118 59 241 38 l63 -11
0 -54 0 -54 50 0 50 0 0 89 0 88 -57 12 c-32 7 -107 15 -168 17 -91 4 -119 1
-164 -14z"/>
<path d="M0 1600 l0 -40 49 0 50 0 3 -284 3 -284 30 -44 c19 -26 52 -55 85
-73 53 -29 60 -30 175 -30 111 0 124 2 170 27 60 31 89 60 110 110 12 31 15
86 15 308 l0 270 50 0 50 0 0 40 0 40 -150 0 -150 0 0 -40 0 -40 51 0 50 0 -3
-269 c-3 -304 -4 -306 -84 -346 -53 -26 -164 -26 -218 0 -74 35 -76 45 -76
348 l0 267 45 0 45 0 0 40 0 40 -150 0 -150 0 0 -40z"/>
<path d="M2370 1600 l0 -40 50 0 50 0 0 -315 0 -315 -50 0 -50 0 0 -40 0 -40
155 0 155 0 0 40 0 40 -55 0 -55 0 0 115 0 115 144 0 c202 0 261 25 309 130
29 62 28 169 -1 226 -27 52 -81 100 -129 113 -22 6 -142 11 -280 11 l-243 0 0
-40z m489 -58 c56 -28 76 -63 76 -135 0 -77 -18 -121 -60 -147 -28 -17 -50
-20 -169 -20 l-136 0 0 160 0 160 128 0 c101 0 134 -4 161 -18z"/>
<path d="M3950 1600 l0 -40 50 0 50 0 0 -315 0 -315 -50 0 -50 0 0 -40 0 -40
310 0 310 0 0 105 0 105 -50 0 -50 0 0 -65 0 -65 -155 0 -155 0 0 315 0 315
50 0 50 0 0 40 0 40 -155 0 -155 0 0 -40z"/>
<path d="M5910 1600 l0 -40 45 0 c25 0 45 -4 45 -8 0 -4 -49 -145 -110 -312
-60 -167 -110 -305 -110 -307 0 -2 -18 -3 -40 -3 l-40 0 0 -40 0 -40 145 0
145 0 0 40 0 40 -51 0 c-37 0 -50 4 -47 13 3 6 15 42 27 80 l23 67 160 -2 160
-3 28 -77 27 -78 -48 0 -49 0 0 -40 0 -40 145 0 145 0 0 40 c0 40 0 40 -39 40
-34 0 -40 4 -49 28 -72 199 -212 594 -212 597 0 3 20 5 45 5 l45 0 0 40 0 40
-195 0 -195 0 0 -40z m320 -422 c0 -5 -59 -8 -131 -8 -121 0 -131 1 -124 18
11 29 125 367 125 372 0 8 130 -374 130 -382z"/>
<path d="M7990 1600 l0 -40 50 0 50 0 0 -315 0 -315 -50 0 -50 0 0 -40 0 -40
150 0 150 0 0 40 0 40 -50 0 -50 0 0 297 0 297 48 -95 c26 -52 106 -203 177
-336 l130 -243 68 0 67 0 0 355 0 355 50 0 50 0 0 40 0 40 -150 0 -150 0 0
-40 0 -40 45 0 45 0 0 -227 c0 -126 3 -253 6 -283 l6 -55 -49 91 c-26 51 -104
196 -173 323 l-125 231 -122 0 -123 0 0 -40z"/>
<path d="M899 958 c0 -2 -1 -27 -2 -56 l-2 -52 58 0 58 0 -3 53 -3 52 -52 3
c-29 2 -53 2 -54 0z"/>
<path d="M1887 954 c-4 -4 -7 -29 -7 -56 l0 -48 61 0 60 0 -3 53 -3 52 -50 3
c-28 2 -54 0 -58 -4z"/>
<path d="M8890 905 l0 -55 55 0 55 0 0 55 0 55 -55 0 -55 0 0 -55z"/>
<path d="M2775 481 c-71 -18 -105 -60 -105 -130 0 -71 35 -97 168 -122 86 -16
112 -38 112 -94 0 -36 -5 -48 -31 -69 -26 -22 -40 -26 -92 -26 -94 0 -107 6
-107 46 0 30 -3 34 -25 34 -23 0 -25 -3 -25 -49 l0 -49 63 -11 c124 -22 189
-9 236 45 36 40 41 95 16 144 -20 38 -56 56 -141 70 -108 19 -145 55 -123 120
19 52 92 73 188 54 27 -6 31 -10 31 -40 0 -27 4 -34 20 -34 17 0 20 7 20 49 0
45 -2 49 -27 54 -58 11 -149 16 -178 8z"/>
<path d="M3962 481 c-100 -26 -162 -115 -162 -235 0 -167 99 -257 264 -242
115 10 116 11 116 67 0 46 -2 49 -25 49 -22 0 -25 -4 -25 -34 0 -34 0 -35 -56
-42 -149 -18 -223 48 -224 200 0 150 87 225 230 199 42 -8 45 -11 50 -43 4
-27 10 -35 25 -35 17 0 20 7 20 49 0 46 -2 50 -28 57 -48 13 -151 18 -185 10z"/>
<path d="M5360 480 c-86 -21 -121 -130 -61 -191 16 -16 38 -29 48 -29 10 0 0
-9 -23 -19 -105 -48 -91 -194 23 -232 45 -15 133 -6 173 17 32 19 60 68 60
104 0 44 -32 92 -74 111 -23 10 -33 19 -23 19 10 0 32 13 48 29 60 60 27 167
-59 191 -42 11 -63 11 -112 0z m113 -42 c53 -28 63 -88 23 -135 -21 -25 -31
-28 -81 -28 -50 0 -60 3 -81 28 -40 46 -30 107 21 135 27 15 91 15 118 0z
m-11 -208 c47 -13 68 -43 68 -96 0 -61 -41 -94 -115 -94 -74 0 -115 33 -115
94 0 51 21 83 63 95 43 12 56 13 99 1z"/>
<path d="M5757 476 c-71 -26 -97 -66 -97 -152 0 -87 29 -124 117 -149 30 -8
108 13 129 36 27 30 36 23 29 -23 -17 -109 -76 -167 -153 -153 -67 11 -70 14
-68 48 1 26 -3 33 -21 35 -21 3 -23 0 -23 -47 l0 -50 57 -11 c113 -24 177 -1
223 81 20 35 25 62 28 135 7 145 -33 230 -119 254 -43 13 -56 12 -102 -4z
m128 -59 c44 -44 64 -130 38 -160 -40 -43 -110 -59 -167 -37 -78 29 -71 188 9
221 45 18 86 10 120 -24z"/>
<path d="M6176 480 c-69 -21 -108 -91 -114 -207 -10 -177 59 -283 176 -270 57
6 91 32 122 93 22 42 25 61 25 149 0 88 -3 107 -25 150 -19 38 -36 55 -70 73
-47 23 -67 26 -114 12z m89 -42 c46 -21 69 -72 73 -167 2 -49 -1 -105 -8 -130
-25 -94 -105 -129 -169 -76 -40 34 -55 83 -55 181 0 149 69 233 159 192z"/>
<path d="M3062 463 c2 -11 14 -19 31 -21 l27 -3 0 -200 0 -199 -30 0 c-20 0
-30 -5 -30 -15 0 -12 16 -15 85 -15 69 0 85 3 85 15 0 10 -10 15 -30 15 l-30
0 0 200 0 200 30 0 c23 0 30 4 30 20 0 18 -7 20 -86 20 -76 0 -85 -2 -82 -17z"/>
<path d="M3280 460 c0 -16 7 -20 30 -20 l30 0 0 -200 0 -200 -30 0 c-20 0 -30
-5 -30 -15 0 -12 16 -15 85 -15 67 0 85 3 85 14 0 9 -12 16 -31 18 l-31 3 -3
188 c-2 103 -2 187 0 187 2 0 56 -92 120 -205 110 -194 118 -205 146 -205 l29
0 0 215 0 215 30 0 c24 0 30 4 30 20 0 20 -5 21 -82 18 -66 -2 -83 -6 -83 -18
0 -9 11 -16 28 -18 l27 -3 0 -177 0 -177 -112 198 -113 197 -62 0 c-56 0 -63
-2 -63 -20z"/>
<path d="M4240 460 c0 -16 7 -20 30 -20 l30 0 0 -200 0 -200 -30 0 c-20 0 -30
-5 -30 -15 0 -13 27 -15 185 -15 l185 0 0 50 c0 43 -3 50 -20 50 -16 0 -20 -7
-20 -35 l0 -36 -112 3 -113 3 0 93 0 94 98 0 c87 1 97 3 97 19 0 17 -9 19
-100 19 l-101 0 3 85 c2 47 6 85 11 85 4 0 54 0 112 0 l105 0 0 -30 c0 -23 4
-30 20 -30 17 0 20 7 20 50 l0 50 -185 0 c-178 0 -185 -1 -185 -20z"/>
<path d="M4970 434 c-36 -24 -64 -47 -63 -49 1 -3 3 -11 6 -18 2 -7 23 1 58
26 30 20 58 37 62 37 4 0 7 -88 7 -195 l0 -195 -50 0 c-38 0 -50 -4 -50 -15 0
-12 19 -15 110 -15 91 0 110 3 110 15 0 11 -11 15 -40 15 l-40 0 0 220 0 220
-22 -1 c-13 0 -52 -20 -88 -45z"/>
</g>
</svg>
