<?xml version="1.0" standalone="no"?>
<!DOCTYPE svg PUBLIC "-//W3C//DTD SVG 20010904//EN"
 "http://www.w3.org/TR/2001/REC-SVG-20010904/DTD/svg10.dtd">
<svg version="1.0" xmlns="http://www.w3.org/2000/svg"
 width="225.000000pt" height="225.000000pt" viewBox="0 0 225.000000 225.000000"
 preserveAspectRatio="xMidYMid meet">

<g transform="translate(0.000000,225.000000) scale(0.100000,-0.100000)"
fill="#000000" stroke="none">
<path d="M1159 1502 c-16 -18 -29 -39 -29 -46 0 -20 32 -44 64 -48 50 -5 44
-28 -7 -28 -53 0 -89 -29 -67 -55 15 -18 37 -20 42 -3 3 9 19 7 62 -7 54 -18
59 -19 86 -3 27 16 29 15 55 -12 35 -37 106 -67 171 -73 74 -7 90 -19 129 -98
20 -38 53 -87 75 -109 22 -22 40 -48 40 -59 0 -37 22 -81 40 -81 37 0 26 95
-17 142 -14 16 -22 42 -26 90 -4 37 -13 82 -22 99 -16 30 -16 32 4 46 12 8 35
42 52 76 37 74 62 103 111 128 53 27 64 79 18 79 -36 0 -91 -61 -130 -144 -74
-156 -145 -157 -333 -5 -91 75 -168 119 -204 119 -13 0 -26 6 -29 14 -9 24
-55 13 -85 -22z"/>
<path d="M280 910 l0 -200 55 0 55 0 0 50 0 49 73 3 72 3 0 145 0 145 -127 3
-128 3 0 -201z m148 52 c3 -97 2 -102 -18 -102 -19 0 -20 6 -20 98 0 54 3 102
7 106 20 19 28 -8 31 -102z"/>
<path d="M580 915 c0 -182 1 -195 19 -205 28 -14 214 -13 229 2 9 9 12 68 12
205 l0 193 -55 0 -55 0 0 -175 c0 -168 -1 -175 -20 -175 -19 0 -20 7 -20 175
l0 175 -55 0 -55 0 0 -195z"/>
<path d="M892 1098 c-9 -9 -12 -65 -12 -200 l0 -188 55 0 55 0 0 169 c0 129 3
171 13 180 8 6 17 8 20 4 4 -3 7 -84 7 -180 l0 -173 55 0 55 0 0 169 c0 129 3
171 13 180 8 6 17 8 20 4 4 -3 7 -84 7 -180 l0 -173 55 0 55 0 -2 198 -3 197
-190 3 c-140 2 -194 -1 -203 -10z"/>
<path d="M1336 1094 c-3 -9 -6 -99 -6 -200 l0 -184 55 0 55 0 0 50 c0 43 3 50
20 50 17 0 20 -7 20 -50 l0 -50 55 0 55 0 0 184 c0 101 -3 191 -6 200 -9 24
-239 24 -248 0z m144 -134 c0 -93 -1 -100 -20 -100 -19 0 -20 7 -20 100 0 93
1 100 20 100 19 0 20 -7 20 -100z"/>
</g>
</svg>
