<?xml version="1.0" standalone="no"?>
<!DOCTYPE svg PUBLIC "-//W3C//DTD SVG 20010904//EN"
 "http://www.w3.org/TR/2001/REC-SVG-20010904/DTD/svg10.dtd">
<svg version="1.0" xmlns="http://www.w3.org/2000/svg"
 width="225.000000pt" height="225.000000pt" viewBox="0 0 225.000000 225.000000"
 preserveAspectRatio="xMidYMid meet">

<g transform="translate(0.000000,225.000000) scale(0.100000,-0.100000)"
fill="#000000" stroke="none">
<path d="M2085 1429 c-497 -42 -885 -88 -908 -109 -5 -4 45 -38 109 -75 l118
-69 60 23 c179 68 384 136 519 172 277 74 274 72 102 58z"/>
<path d="M31 1426 c2 -2 74 -19 159 -36 328 -67 633 -155 943 -272 131 -49
676 -275 711 -295 7 -4 8 -3 1 4 -18 18 -694 417 -920 542 l-110 61 -394 0
c-217 0 -392 -2 -390 -4z"/>
<path d="M585 1166 c-197 -81 -324 -159 -428 -263 l-68 -68 182 -3 181 -2 72
67 c84 80 160 132 274 189 46 23 80 44 75 47 -8 5 -201 67 -206 67 -1 -1 -38
-16 -82 -34z"/>
<path d="M890 1059 c-41 -23 -97 -57 -125 -77 -60 -44 -155 -132 -155 -143 0
-5 74 -9 164 -9 l164 0 38 51 c22 28 69 75 106 104 l67 53 -85 31 c-48 17 -89
31 -93 31 -3 0 -40 -19 -81 -41z"/>
</g>
</svg>
