<?xml version="1.0" standalone="no"?>
<!DOCTYPE svg PUBLIC "-//W3C//DTD SVG 20010904//EN"
 "http://www.w3.org/TR/2001/REC-SVG-20010904/DTD/svg10.dtd">
<svg version="1.0" xmlns="http://www.w3.org/2000/svg"
 width="225.000000pt" height="225.000000pt" viewBox="0 0 225.000000 225.000000"
 preserveAspectRatio="xMidYMid meet">

<g transform="translate(0.000000,225.000000) scale(0.100000,-0.100000)"
fill="#000000" stroke="none">
<path d="M852 1403 l-23 -68 54 -150 c30 -82 73 -205 97 -272 l44 -123 78 0
78 0 0 329 0 328 -86 7 c-47 4 -89 5 -92 2 -3 -3 13 -6 36 -6 l42 0 0 -252
c-1 -215 -3 -249 -14 -223 -7 17 -50 135 -96 263 -46 127 -86 232 -89 232 -4
0 -17 -30 -29 -67z"/>
<path d="M1597 1398 c-14 -40 -22 -75 -18 -78 4 -3 50 -123 101 -267 l94 -263
54 0 c30 0 52 4 50 10 -63 181 -245 670 -249 670 -4 0 -18 -33 -32 -72z"/>
<path d="M320 1379 l0 -81 28 53 c41 78 86 99 214 99 54 0 98 -2 98 -5 0 -3
-83 -149 -185 -324 -102 -176 -185 -322 -185 -326 0 -3 25 -5 56 -3 l56 3 185
320 c102 176 187 326 190 333 4 9 -45 12 -226 12 l-231 0 0 -81z"/>
<path d="M1336 1431 c57 -35 83 -157 50 -236 -17 -39 -41 -55 -88 -56 -29 -1
-27 -2 13 -9 93 -16 120 -57 118 -172 -3 -117 32 -170 123 -184 l43 -7 -29 25
c-28 24 -30 30 -36 129 -5 81 -12 112 -28 139 -12 19 -22 31 -22 26 0 -5 -9
-1 -19 8 -11 10 -39 23 -62 30 l-44 13 46 20 c93 41 127 131 79 209 -23 36
-108 84 -149 84 -26 0 -26 0 5 -19z"/>
<path d="M1546 1265 c-9 -26 -7 -32 5 -12 6 10 9 21 6 23 -2 3 -7 -2 -11 -11z"/>
<path d="M790 956 c0 -61 -40 -117 -105 -147 l-40 -19 78 0 77 0 0 95 c0 52
-2 95 -5 95 -3 0 -5 -11 -5 -24z"/>
<path d="M1376 803 c-6 -14 -5 -15 5 -6 7 7 10 15 7 18 -3 3 -9 -2 -12 -12z"/>
</g>
</svg>
